<svg xmlns="http://www.w3.org/2000/svg" xmlns:xlink="http://www.w3.org/1999/xlink" width="500" zoomAndPan="magnify" viewBox="0 0 375 374.999991" height="500" preserveAspectRatio="xMidYMid meet" version="1.0"><defs><g/><clipPath id="fe074a0239"><path d="M 86 78 L 289.195312 78 L 289.195312 242 L 86 242 Z M 86 78 " clip-rule="nonzero"/></clipPath></defs><g clip-path="url(#fe074a0239)"><path fill="#393939" d="M 289.15625 189.59375 C 289.167969 190.003906 289.101562 190.40625 288.953125 190.789062 C 288.808594 191.175781 288.589844 191.519531 288.300781 191.816406 C 288.011719 192.113281 287.679688 192.34375 287.296875 192.503906 C 286.914062 192.667969 286.515625 192.746094 286.101562 192.746094 C 285.6875 192.746094 285.289062 192.667969 284.90625 192.503906 C 284.523438 192.34375 284.191406 192.113281 283.902344 191.816406 C 283.613281 191.519531 283.394531 191.175781 283.246094 190.789062 C 283.101562 190.40625 283.03125 190.003906 283.046875 189.59375 C 283.046875 175.832031 280.273438 163.371094 274.804688 152.554688 C 272.589844 148.195312 269.957031 144.105469 266.90625 140.285156 C 263.855469 136.460938 260.445312 132.984375 256.683594 129.855469 C 249.8125 124.121094 242.199219 119.636719 233.847656 116.398438 L 233.847656 131.410156 C 233.847656 131.792969 233.777344 132.164062 233.636719 132.519531 C 233.496094 132.878906 233.292969 133.199219 233.027344 133.480469 C 232.765625 133.757812 232.460938 133.984375 232.113281 134.148438 C 231.765625 134.3125 231.398438 134.410156 231.011719 134.4375 L 222.78125 135.054688 C 221.695312 135.132812 220.621094 135.296875 219.5625 135.546875 C 218.503906 135.792969 217.472656 136.125 216.464844 136.535156 C 215.457031 136.945312 214.492188 137.433594 213.5625 138 C 212.632812 138.566406 211.753906 139.199219 210.929688 139.902344 C 210.101562 140.605469 209.332031 141.371094 208.628906 142.195312 C 207.921875 143.019531 207.285156 143.894531 206.71875 144.820312 C 206.152344 145.746094 205.664062 146.710938 205.25 147.714844 C 204.835938 148.71875 204.507812 149.746094 204.257812 150.800781 L 203.273438 154.933594 C 203.125 155.570312 202.925781 156.195312 202.683594 156.804688 C 202.4375 157.414062 202.152344 158 201.820312 158.566406 C 201.488281 159.132812 201.113281 159.671875 200.699219 160.179688 C 200.285156 160.691406 199.835938 161.167969 199.351562 161.609375 C 198.867188 162.054688 198.351562 162.457031 197.804688 162.824219 C 197.257812 163.1875 196.6875 163.511719 196.09375 163.792969 C 195.5 164.074219 194.886719 164.308594 194.253906 164.496094 C 193.625 164.683594 192.984375 164.824219 192.332031 164.917969 L 187.613281 165.609375 C 186.988281 165.695312 186.488281 165.992188 186.117188 166.5 C 185.746094 167.003906 185.613281 167.5625 185.710938 168.179688 L 187.917969 182.09375 C 188.015625 182.742188 188.175781 183.378906 188.386719 184 C 188.601562 184.621094 188.867188 185.21875 189.191406 185.792969 C 189.511719 186.367188 189.878906 186.90625 190.296875 187.414062 C 190.714844 187.921875 191.175781 188.390625 191.675781 188.816406 C 192.175781 189.246094 192.710938 189.625 193.28125 189.957031 C 193.847656 190.285156 194.441406 190.566406 195.0625 190.792969 C 195.679688 191.019531 196.3125 191.1875 196.964844 191.300781 C 197.613281 191.417969 198.265625 191.472656 198.925781 191.46875 L 204.125 191.46875 C 204.820312 191.46875 205.515625 191.503906 206.210938 191.574219 C 206.902344 191.640625 207.59375 191.746094 208.277344 191.878906 C 208.960938 192.015625 209.632812 192.183594 210.300781 192.386719 C 210.96875 192.589844 211.625 192.824219 212.269531 193.089844 C 212.910156 193.355469 213.539062 193.652344 214.15625 193.980469 C 214.769531 194.308594 215.367188 194.664062 215.945312 195.050781 C 216.527344 195.4375 217.085938 195.847656 217.625 196.289062 C 218.164062 196.730469 218.679688 197.195312 219.171875 197.6875 C 219.664062 198.179688 220.132812 198.691406 220.574219 199.230469 C 221.015625 199.765625 221.433594 200.324219 221.820312 200.898438 C 222.207031 201.476562 222.566406 202.070312 222.894531 202.683594 C 223.222656 203.296875 223.523438 203.921875 223.789062 204.566406 C 224.054688 205.207031 224.292969 205.859375 224.492188 206.523438 C 224.695312 207.1875 224.867188 207.863281 225.003906 208.542969 C 225.140625 209.222656 225.242188 209.910156 225.3125 210.601562 C 225.382812 211.292969 225.417969 211.984375 225.417969 212.679688 L 225.417969 221.160156 C 225.433594 221.570312 225.367188 221.972656 225.21875 222.355469 C 225.070312 222.742188 224.851562 223.085938 224.5625 223.382812 C 224.277344 223.679688 223.941406 223.910156 223.558594 224.070312 C 223.175781 224.234375 222.777344 224.3125 222.363281 224.3125 C 221.949219 224.3125 221.550781 224.234375 221.167969 224.070312 C 220.789062 223.910156 220.453125 223.679688 220.164062 223.382812 C 219.878906 223.085938 219.660156 222.742188 219.511719 222.355469 C 219.363281 221.972656 219.296875 221.570312 219.3125 221.160156 L 219.3125 212.679688 C 219.308594 211.6875 219.210938 210.703125 219.015625 209.730469 C 218.820312 208.753906 218.53125 207.808594 218.152344 206.890625 C 217.769531 205.976562 217.300781 205.101562 216.746094 204.277344 C 216.195312 203.453125 215.5625 202.6875 214.859375 201.984375 C 214.15625 201.285156 213.386719 200.65625 212.558594 200.105469 C 211.730469 199.554688 210.855469 199.085938 209.9375 198.707031 C 209.015625 198.324219 208.066406 198.039062 207.089844 197.84375 C 206.113281 197.648438 205.125 197.550781 204.128906 197.550781 L 198.929688 197.550781 C 197.910156 197.554688 196.898438 197.46875 195.890625 197.292969 C 194.886719 197.117188 193.90625 196.851562 192.949219 196.503906 C 191.988281 196.152344 191.070312 195.722656 190.191406 195.207031 C 189.308594 194.695312 188.480469 194.105469 187.707031 193.445312 C 186.929688 192.785156 186.21875 192.0625 185.570312 191.277344 C 184.925781 190.488281 184.355469 189.652344 183.859375 188.761719 C 183.363281 187.875 182.949219 186.949219 182.617188 185.988281 C 182.285156 185.027344 182.042969 184.042969 181.886719 183.039062 L 179.6875 169.113281 C 179.601562 168.570312 179.566406 168.019531 179.589844 167.46875 C 179.613281 166.917969 179.6875 166.375 179.820312 165.839844 C 179.949219 165.304688 180.132812 164.789062 180.367188 164.289062 C 180.601562 163.789062 180.878906 163.316406 181.207031 162.871094 C 181.535156 162.429688 181.90625 162.019531 182.3125 161.648438 C 182.722656 161.277344 183.164062 160.953125 183.636719 160.667969 C 184.113281 160.382812 184.609375 160.148438 185.128906 159.964844 C 185.652344 159.78125 186.1875 159.648438 186.734375 159.566406 L 191.457031 158.882812 C 192.164062 158.78125 192.835938 158.578125 193.480469 158.273438 C 194.121094 157.972656 194.707031 157.582031 195.230469 157.101562 C 195.757812 156.621094 196.199219 156.078125 196.558594 155.464844 C 196.917969 154.851562 197.179688 154.203125 197.339844 153.511719 L 198.324219 149.378906 C 198.648438 148.011719 199.078125 146.679688 199.613281 145.378906 C 200.148438 144.078125 200.78125 142.832031 201.515625 141.632812 C 202.25 140.433594 203.074219 139.296875 203.988281 138.230469 C 204.90625 137.160156 205.898438 136.167969 206.972656 135.257812 C 208.042969 134.347656 209.183594 133.523438 210.386719 132.792969 C 211.589844 132.0625 212.84375 131.429688 214.148438 130.894531 C 215.453125 130.363281 216.789062 129.933594 218.160156 129.613281 C 219.535156 129.292969 220.921875 129.078125 222.328125 128.976562 L 227.742188 128.574219 L 227.742188 112.148438 C 227.742188 111.914062 227.769531 111.683594 227.824219 111.457031 C 227.875 111.230469 227.953125 111.011719 228.058594 110.804688 C 228.160156 110.59375 228.285156 110.398438 228.433594 110.21875 C 228.582031 110.039062 228.75 109.875 228.9375 109.734375 C 229.121094 109.589844 229.320312 109.472656 229.535156 109.375 C 229.746094 109.277344 229.96875 109.207031 230.199219 109.164062 C 230.429688 109.117188 230.660156 109.097656 230.894531 109.105469 C 231.128906 109.113281 231.359375 109.144531 231.585938 109.207031 C 232.175781 109.367188 246.222656 113.203125 260.40625 125.023438 C 264.511719 128.414062 268.230469 132.183594 271.558594 136.332031 C 274.890625 140.480469 277.765625 144.921875 280.183594 149.65625 C 286.136719 161.375 289.15625 174.808594 289.15625 189.59375 Z M 153.851562 111.828125 C 153.417969 110.867188 152.859375 109.984375 152.167969 109.1875 C 151.476562 108.386719 150.6875 107.703125 149.796875 107.132812 C 148.90625 106.5625 147.949219 106.132812 146.933594 105.839844 C 145.914062 105.550781 144.878906 105.410156 143.820312 105.417969 C 142.761719 105.429688 141.726562 105.589844 140.714844 105.902344 C 139.703125 106.214844 138.757812 106.664062 137.878906 107.253906 C 137 107.839844 136.222656 108.539062 135.550781 109.355469 C 134.875 110.167969 134.332031 111.058594 133.921875 112.03125 C 133.761719 112.402344 133.679688 112.789062 133.675781 113.195312 C 133.675781 113.597656 133.75 113.984375 133.902344 114.359375 C 134.050781 114.734375 134.269531 115.0625 134.554688 115.351562 C 134.839844 115.636719 135.167969 115.859375 135.539062 116.015625 C 135.917969 116.179688 136.316406 116.257812 136.726562 116.257812 C 137.34375 116.261719 137.914062 116.097656 138.429688 115.757812 C 138.945312 115.421875 139.324219 114.96875 139.5625 114.402344 C 139.746094 113.976562 139.984375 113.585938 140.277344 113.230469 C 140.574219 112.871094 140.914062 112.566406 141.296875 112.308594 C 141.683594 112.050781 142.097656 111.851562 142.539062 111.714844 C 142.984375 111.578125 143.4375 111.507812 143.898438 111.503906 C 144.363281 111.5 144.816406 111.558594 145.265625 111.6875 C 145.710938 111.8125 146.128906 112.003906 146.519531 112.253906 C 146.910156 112.5 147.253906 112.800781 147.558594 113.152344 C 147.859375 113.5 148.105469 113.886719 148.296875 114.308594 C 148.460938 114.675781 148.691406 115 148.984375 115.277344 C 149.277344 115.554688 149.613281 115.765625 149.992188 115.910156 C 150.371094 116.054688 150.761719 116.121094 151.167969 116.109375 C 151.570312 116.097656 151.957031 116.011719 152.328125 115.847656 C 152.699219 115.683594 153.023438 115.453125 153.300781 115.160156 C 153.578125 114.867188 153.789062 114.535156 153.933594 114.15625 C 154.078125 113.78125 154.148438 113.390625 154.136719 112.988281 C 154.125 112.585938 154.035156 112.199219 153.871094 111.828125 Z M 225.460938 155.105469 C 225.074219 154.242188 224.566406 153.449219 223.945312 152.730469 C 223.324219 152.011719 222.613281 151.398438 221.8125 150.886719 C 221.011719 150.375 220.152344 149.988281 219.238281 149.726562 C 218.324219 149.464844 217.390625 149.339844 216.4375 149.347656 C 215.484375 149.359375 214.554688 149.503906 213.648438 149.785156 C 212.738281 150.0625 211.886719 150.46875 211.097656 150.996094 C 210.304688 151.523438 209.609375 152.152344 209 152.886719 C 208.394531 153.617188 207.90625 154.417969 207.535156 155.292969 C 207.359375 155.667969 207.265625 156.058594 207.25 156.472656 C 207.238281 156.886719 207.304688 157.285156 207.453125 157.671875 C 207.601562 158.054688 207.820312 158.398438 208.109375 158.695312 C 208.398438 158.992188 208.734375 159.222656 209.113281 159.382812 C 209.496094 159.542969 209.894531 159.621094 210.308594 159.621094 C 210.726562 159.621094 211.121094 159.539062 211.503906 159.378906 C 211.886719 159.214844 212.21875 158.984375 212.507812 158.6875 C 212.792969 158.390625 213.011719 158.046875 213.160156 157.660156 C 213.445312 156.992188 213.890625 156.453125 214.496094 156.050781 C 215.105469 155.644531 215.773438 155.4375 216.503906 155.429688 C 217.234375 155.421875 217.90625 155.617188 218.519531 156.007812 C 219.136719 156.402344 219.59375 156.929688 219.890625 157.59375 C 220.054688 157.960938 220.285156 158.285156 220.578125 158.5625 C 220.875 158.835938 221.210938 159.046875 221.589844 159.191406 C 221.96875 159.335938 222.359375 159.402344 222.761719 159.390625 C 223.167969 159.378906 223.554688 159.289062 223.925781 159.125 C 224.292969 158.960938 224.617188 158.730469 224.894531 158.4375 C 225.171875 158.144531 225.382812 157.808594 225.527344 157.433594 C 225.671875 157.054688 225.738281 156.667969 225.726562 156.261719 C 225.714844 155.859375 225.628906 155.472656 225.460938 155.105469 Z M 205.371094 99.09375 C 205.039062 99.320312 204.671875 99.476562 204.277344 99.558594 C 203.878906 99.640625 203.484375 99.640625 203.085938 99.566406 C 202.6875 99.492188 202.320312 99.339844 201.980469 99.121094 C 201.644531 98.898438 201.359375 98.621094 201.132812 98.289062 C 200.378906 97.171875 199.554688 96.113281 198.664062 95.101562 C 197.773438 94.09375 196.820312 93.144531 195.808594 92.253906 C 194.796875 91.363281 193.730469 90.542969 192.613281 89.789062 C 191.496094 89.035156 190.335938 88.355469 189.132812 87.75 C 187.929688 87.144531 186.691406 86.617188 185.417969 86.167969 C 184.148438 85.71875 182.851562 85.351562 181.53125 85.066406 C 180.214844 84.78125 178.882812 84.582031 177.539062 84.464844 C 176.195312 84.347656 174.847656 84.320312 173.5 84.375 L 143.222656 85.53125 C 142.128906 85.578125 141.066406 85.785156 140.039062 86.148438 C 139.007812 86.515625 138.054688 87.027344 137.179688 87.679688 C 136.304688 88.335938 135.546875 89.101562 134.902344 89.984375 C 134.261719 90.871094 133.765625 91.828125 133.417969 92.859375 L 129.851562 103.519531 C 129.398438 104.890625 128.777344 106.179688 127.992188 107.394531 C 127.203125 108.605469 126.277344 109.695312 125.207031 110.671875 C 124.140625 111.644531 122.964844 112.46875 121.683594 113.140625 C 120.402344 113.8125 119.058594 114.3125 117.648438 114.640625 L 112.132812 115.941406 L 112.132812 116.042969 C 112.136719 117.351562 112.011719 118.652344 111.761719 119.941406 C 111.507812 121.226562 111.132812 122.480469 110.636719 123.695312 C 110.140625 124.910156 109.527344 126.0625 108.804688 127.160156 C 108.082031 128.253906 107.257812 129.269531 106.335938 130.207031 C 104.921875 131.648438 103.324219 132.855469 101.546875 133.824219 C 99.769531 134.789062 97.890625 135.476562 95.90625 135.878906 L 96.613281 139.109375 C 96.84375 140.136719 97.15625 141.136719 97.558594 142.109375 C 97.957031 143.085938 98.433594 144.019531 98.992188 144.914062 C 99.546875 145.808594 100.175781 146.648438 100.875 147.4375 C 101.574219 148.226562 102.335938 148.949219 103.160156 149.609375 C 103.980469 150.269531 104.855469 150.855469 105.773438 151.371094 C 106.695312 151.886719 107.65625 152.316406 108.648438 152.671875 C 109.644531 153.023438 110.664062 153.289062 111.703125 153.472656 C 112.742188 153.65625 113.792969 153.746094 114.847656 153.753906 L 144.546875 153.753906 C 145.707031 151.585938 147.132812 149.605469 148.824219 147.816406 L 148.875 147.765625 C 159.964844 135.734375 165.585938 122.730469 165.585938 109.082031 C 165.601562 108.6875 165.6875 108.308594 165.851562 107.949219 C 166.011719 107.589844 166.234375 107.273438 166.519531 107 C 166.804688 106.726562 167.128906 106.515625 167.496094 106.367188 C 167.863281 106.21875 168.242188 106.148438 168.640625 106.148438 C 169.035156 106.148438 169.414062 106.21875 169.78125 106.367188 C 170.148438 106.515625 170.476562 106.726562 170.761719 107 C 171.042969 107.273438 171.269531 107.589844 171.429688 107.949219 C 171.589844 108.308594 171.679688 108.6875 171.691406 109.082031 C 171.691406 124.320312 165.503906 138.746094 153.300781 151.960938 C 153.273438 151.992188 153.242188 152.023438 153.210938 152.050781 C 151.566406 153.804688 150.257812 155.78125 149.277344 157.976562 C 149.09375 158.386719 148.925781 158.800781 148.769531 159.21875 C 148.613281 159.636719 148.472656 160.0625 148.339844 160.488281 C 148.210938 160.917969 148.09375 161.347656 147.992188 161.785156 C 147.890625 162.21875 147.800781 162.65625 147.726562 163.097656 C 147.648438 163.539062 147.585938 163.984375 147.539062 164.425781 C 147.492188 164.871094 147.457031 165.316406 147.4375 165.765625 C 147.417969 166.210938 147.410156 166.65625 147.417969 167.105469 C 147.425781 167.550781 147.449219 168 147.484375 168.445312 C 147.519531 168.890625 147.570312 169.335938 147.632812 169.777344 C 147.695312 170.21875 147.773438 170.660156 147.863281 171.097656 C 147.953125 171.535156 148.058594 171.96875 148.175781 172.402344 C 148.296875 172.832031 148.425781 173.261719 148.570312 173.683594 C 148.714844 174.109375 148.871094 174.527344 149.042969 174.941406 C 149.214844 175.351562 149.398438 175.761719 149.59375 176.164062 C 149.789062 176.566406 149.996094 176.960938 150.21875 177.351562 C 150.4375 177.738281 150.671875 178.121094 150.917969 178.496094 C 151.160156 178.871094 151.417969 179.238281 151.683594 179.597656 C 151.953125 179.957031 152.230469 180.308594 152.519531 180.648438 C 152.808594 180.992188 153.109375 181.324219 153.417969 181.648438 C 153.730469 181.96875 154.046875 182.285156 154.378906 182.585938 C 154.707031 182.890625 155.046875 183.183594 155.394531 183.464844 C 155.742188 183.75 156.097656 184.019531 156.464844 184.28125 C 156.828125 184.539062 157.199219 184.789062 157.582031 185.027344 C 157.960938 185.265625 158.347656 185.488281 158.742188 185.703125 C 159.136719 185.917969 159.539062 186.117188 159.945312 186.304688 C 160.351562 186.496094 160.765625 186.671875 161.183594 186.832031 C 161.601562 186.996094 162.023438 187.148438 162.449219 187.285156 C 162.878906 187.421875 163.308594 187.542969 163.742188 187.65625 C 164.179688 187.765625 164.617188 187.859375 165.058594 187.945312 C 165.496094 188.027344 165.941406 188.097656 166.386719 188.152344 C 166.832031 188.207031 167.277344 188.25 167.726562 188.277344 C 168.171875 188.304688 168.621094 188.320312 169.070312 188.320312 C 169.476562 188.320312 169.867188 188.398438 170.238281 188.550781 C 170.613281 188.707031 170.945312 188.925781 171.230469 189.210938 C 171.519531 189.496094 171.738281 189.828125 171.894531 190.199219 C 172.046875 190.574219 172.125 190.960938 172.125 191.363281 C 172.125 191.769531 172.046875 192.15625 171.894531 192.53125 C 171.738281 192.902344 171.519531 193.230469 171.230469 193.515625 C 170.945312 193.800781 170.613281 194.023438 170.238281 194.175781 C 169.867188 194.332031 169.476562 194.410156 169.070312 194.410156 C 165.765625 194.410156 162.5625 193.84375 159.460938 192.699219 L 159.460938 211.914062 C 159.460938 218.300781 162.296875 228.597656 170.34375 236.597656 C 170.640625 236.882812 170.871094 237.210938 171.035156 237.585938 C 171.203125 237.964844 171.285156 238.355469 171.292969 238.765625 C 171.296875 239.175781 171.222656 239.570312 171.066406 239.953125 C 170.910156 240.332031 170.6875 240.667969 170.394531 240.957031 C 170.105469 241.246094 169.769531 241.46875 169.386719 241.625 C 169.007812 241.777344 168.609375 241.851562 168.199219 241.847656 C 167.789062 241.84375 167.394531 241.757812 167.015625 241.59375 C 166.636719 241.429688 166.308594 241.199219 166.023438 240.902344 C 153.960938 228.882812 153.351562 214.65625 153.351562 211.914062 L 153.351562 189.554688 C 152.1875 188.757812 151.085938 187.875 150.054688 186.910156 C 149.023438 185.945312 148.074219 184.90625 147.203125 183.796875 C 146.328125 182.683594 145.546875 181.515625 144.855469 180.285156 C 144.164062 179.054688 143.570312 177.777344 143.074219 176.457031 C 142.578125 175.136719 142.183594 173.789062 141.894531 172.40625 C 141.605469 171.027344 141.425781 169.632812 141.347656 168.222656 C 141.273438 166.816406 141.308594 165.410156 141.449219 164.007812 C 141.589844 162.605469 141.835938 161.21875 142.191406 159.855469 L 114.859375 159.855469 C 113.457031 159.847656 112.066406 159.722656 110.683594 159.484375 C 109.304688 159.242188 107.953125 158.886719 106.632812 158.421875 C 105.3125 157.953125 104.039062 157.378906 102.816406 156.695312 C 101.589844 156.015625 100.433594 155.234375 99.34375 154.359375 C 98.25 153.484375 97.238281 152.523438 96.3125 151.476562 C 95.382812 150.429688 94.546875 149.3125 93.808594 148.125 C 93.066406 146.9375 92.433594 145.699219 91.902344 144.40625 C 91.371094 143.113281 90.953125 141.785156 90.648438 140.421875 L 89.234375 133.960938 C 89.234375 133.9375 89.234375 133.90625 89.234375 133.882812 L 86.710938 122.414062 C 86.621094 121.992188 86.570312 121.5625 86.5625 121.132812 C 86.554688 120.699219 86.589844 120.273438 86.664062 119.847656 C 86.742188 119.421875 86.855469 119.007812 87.011719 118.605469 C 87.167969 118.203125 87.363281 117.820312 87.59375 117.453125 C 87.824219 117.089844 88.089844 116.75 88.386719 116.433594 C 88.679688 116.121094 89.007812 115.835938 89.359375 115.585938 C 89.710938 115.332031 90.082031 115.117188 90.476562 114.9375 C 90.871094 114.757812 91.277344 114.617188 91.699219 114.515625 L 108.125 110.636719 L 108.257812 110.601562 L 116.242188 108.71875 C 117.144531 108.507812 118.007812 108.1875 118.828125 107.753906 C 119.648438 107.324219 120.402344 106.796875 121.085938 106.171875 C 121.769531 105.546875 122.363281 104.847656 122.867188 104.070312 C 123.371094 103.296875 123.769531 102.46875 124.058594 101.589844 L 127.628906 90.929688 C 127.898438 90.125 128.230469 89.34375 128.621094 88.589844 C 129.011719 87.835938 129.453125 87.113281 129.953125 86.425781 C 130.453125 85.734375 131 85.089844 131.597656 84.484375 C 132.195312 83.875 132.835938 83.320312 133.519531 82.808594 C 134.199219 82.300781 134.917969 81.84375 135.667969 81.441406 C 136.417969 81.039062 137.195312 80.695312 138 80.410156 C 138.800781 80.125 139.621094 79.902344 140.460938 79.742188 C 141.296875 79.582031 142.140625 79.480469 142.992188 79.449219 L 173.269531 78.292969 C 174.875 78.226562 176.476562 78.261719 178.078125 78.398438 C 179.679688 78.539062 181.265625 78.777344 182.835938 79.113281 C 184.410156 79.453125 185.953125 79.890625 187.464844 80.425781 C 188.980469 80.960938 190.457031 81.589844 191.890625 82.3125 C 193.324219 83.035156 194.707031 83.84375 196.039062 84.742188 C 197.367188 85.640625 198.636719 86.617188 199.84375 87.679688 C 201.046875 88.738281 202.183594 89.867188 203.242188 91.070312 C 204.304688 92.273438 205.285156 93.539062 206.183594 94.867188 C 206.410156 95.203125 206.566406 95.566406 206.648438 95.960938 C 206.730469 96.355469 206.730469 96.753906 206.65625 97.148438 C 206.578125 97.542969 206.429688 97.910156 206.207031 98.25 C 205.984375 98.585938 205.707031 98.867188 205.371094 99.09375 Z M 105.957031 117.398438 L 93.105469 120.433594 C 92.953125 120.472656 92.835938 120.558594 92.753906 120.6875 C 92.667969 120.820312 92.644531 120.964844 92.675781 121.117188 L 94.605469 129.945312 C 95.347656 129.792969 96.070312 129.585938 96.78125 129.316406 C 97.488281 129.050781 98.171875 128.726562 98.828125 128.351562 C 99.484375 127.976562 100.109375 127.550781 100.699219 127.078125 C 101.289062 126.605469 101.835938 126.085938 102.34375 125.527344 C 102.851562 124.964844 103.3125 124.367188 103.722656 123.734375 C 104.136719 123.101562 104.496094 122.441406 104.800781 121.75 C 105.109375 121.058594 105.359375 120.347656 105.554688 119.621094 C 105.746094 118.890625 105.882812 118.148438 105.957031 117.398438 Z M 105.957031 117.398438 " fill-opacity="1" fill-rule="nonzero"/></g><g fill="#393939" fill-opacity="1"><g transform="translate(119.564091, 275.422089)"><g><path d="M 1.4375 -15.9375 L 9.015625 -15.9375 C 10.835938 -15.9375 12.25 -15.5 13.25 -14.625 C 14.25 -13.757812 14.75 -12.578125 14.75 -11.078125 C 14.75 -9.597656 14.238281 -8.414062 13.21875 -7.53125 C 12.207031 -6.65625 10.804688 -6.21875 9.015625 -6.21875 L 5.640625 -6.21875 L 5.640625 0 L 1.4375 0 Z M 8.46875 -9.359375 C 10.050781 -9.359375 10.84375 -9.914062 10.84375 -11.03125 C 10.84375 -11.601562 10.648438 -12.035156 10.265625 -12.328125 C 9.878906 -12.617188 9.28125 -12.765625 8.46875 -12.765625 L 5.640625 -12.765625 L 5.640625 -9.359375 Z M 8.46875 -9.359375 "/></g></g></g><g fill="#393939" fill-opacity="1"><g transform="translate(135.951939, 275.422089)"><g><path d="M 1.4375 0 L 1.4375 -15.9375 L 12.8125 -15.9375 L 12.8125 -12.71875 L 5.53125 -12.71875 L 5.53125 -9.71875 L 12.34375 -9.71875 L 12.34375 -6.5 L 5.53125 -6.5 L 5.53125 -3.21875 L 12.8125 -3.21875 L 12.8125 0 Z M 1.4375 0 "/></g></g></g><g fill="#393939" fill-opacity="1"><g transform="translate(150.52641, 275.422089)"><g><path d="M 5.015625 0 L 5.015625 -12.53125 L 0.265625 -12.53125 L 0.265625 -15.9375 L 14.015625 -15.9375 L 14.015625 -12.53125 L 9.265625 -12.53125 L 9.265625 0 Z M 5.015625 0 "/></g></g></g><g fill="#393939" fill-opacity="1"><g transform="translate(165.862055, 275.422089)"><g><path d="M 1.4375 0 L 1.4375 -15.9375 L 12.5625 -15.9375 L 12.5625 -12.65625 L 5.578125 -12.65625 L 5.578125 -9.734375 L 12.109375 -9.734375 L 12.109375 -6.46875 L 5.578125 -6.46875 L 5.578125 0 Z M 1.4375 0 "/></g></g></g><g fill="#393939" fill-opacity="1"><g transform="translate(179.988772, 275.422089)"><g><path d="M 1.4375 0 L 1.4375 -15.9375 L 5.640625 -15.9375 L 5.640625 0 Z M 1.4375 0 "/></g></g></g><g fill="#393939" fill-opacity="1"><g transform="translate(188.115645, 275.422089)"><g><path d="M 11.734375 -15.9375 L 15.703125 -15.9375 L 15.703125 0 L 12.578125 0 L 5.34375 -9.046875 L 5.34375 0 L 1.4375 0 L 1.4375 -15.9375 L 4.5 -15.9375 L 11.734375 -6.9375 Z M 11.734375 -15.9375 "/></g></g></g><g fill="#393939" fill-opacity="1"><g transform="translate(206.316892, 275.422089)"><g><path d="M 1.4375 -15.9375 L 7.953125 -15.9375 C 9.710938 -15.9375 11.226562 -15.617188 12.5 -14.984375 C 13.78125 -14.347656 14.757812 -13.429688 15.4375 -12.234375 C 16.113281 -11.046875 16.453125 -9.632812 16.453125 -8 C 16.453125 -6.34375 16.113281 -4.910156 15.4375 -3.703125 C 14.769531 -2.503906 13.796875 -1.585938 12.515625 -0.953125 C 11.242188 -0.316406 9.722656 0 7.953125 0 L 1.4375 0 Z M 7.65625 -3.359375 C 9.207031 -3.359375 10.367188 -3.742188 11.140625 -4.515625 C 11.910156 -5.285156 12.296875 -6.445312 12.296875 -8 C 12.296875 -11.050781 10.75 -12.578125 7.65625 -12.578125 L 5.640625 -12.578125 L 5.640625 -3.359375 Z M 7.65625 -3.359375 "/></g></g></g><g fill="#393939" fill-opacity="1"><g transform="translate(224.853943, 275.422089)"><g><path d="M 1.4375 0 L 1.4375 -15.9375 L 12.8125 -15.9375 L 12.8125 -12.71875 L 5.53125 -12.71875 L 5.53125 -9.71875 L 12.34375 -9.71875 L 12.34375 -6.5 L 5.53125 -6.5 L 5.53125 -3.21875 L 12.8125 -3.21875 L 12.8125 0 Z M 1.4375 0 "/></g></g></g><g fill="#393939" fill-opacity="1"><g transform="translate(239.428417, 275.422089)"><g><path d="M 15.296875 0 L 10.84375 0 L 8.78125 -5.3125 C 8.539062 -5.90625 7.976562 -6.203125 7.09375 -6.203125 L 5.578125 -6.203125 L 5.578125 0 L 1.4375 0 L 1.4375 -15.9375 L 8.84375 -15.9375 C 10.769531 -15.9375 12.21875 -15.519531 13.1875 -14.6875 C 14.15625 -13.863281 14.640625 -12.6875 14.640625 -11.15625 C 14.640625 -10.070312 14.351562 -9.140625 13.78125 -8.359375 C 13.207031 -7.578125 12.398438 -7.019531 11.359375 -6.6875 C 11.804688 -6.601562 12.207031 -6.394531 12.5625 -6.0625 C 12.914062 -5.738281 13.195312 -5.300781 13.40625 -4.75 Z M 8.171875 -9.34375 C 9.066406 -9.34375 9.710938 -9.476562 10.109375 -9.75 C 10.515625 -10.03125 10.71875 -10.457031 10.71875 -11.03125 C 10.71875 -11.644531 10.519531 -12.085938 10.125 -12.359375 C 9.726562 -12.628906 9.078125 -12.765625 8.171875 -12.765625 L 5.53125 -12.765625 L 5.53125 -9.34375 Z M 8.171875 -9.34375 "/></g></g></g><g fill="#393939" fill-opacity="1"><g transform="translate(84.573396, 293.467629)"><g><path d="M 1.171875 -9.4375 L 4.921875 -9.4375 C 5.898438 -9.4375 6.660156 -9.203125 7.203125 -8.734375 C 7.742188 -8.265625 8.015625 -7.617188 8.015625 -6.796875 C 8.015625 -5.972656 7.738281 -5.320312 7.1875 -4.84375 C 6.644531 -4.375 5.890625 -4.140625 4.921875 -4.140625 L 2.25 -4.140625 L 2.25 0 L 1.171875 0 Z M 4.84375 -5.046875 C 5.539062 -5.046875 6.0625 -5.195312 6.40625 -5.5 C 6.757812 -5.800781 6.9375 -6.234375 6.9375 -6.796875 C 6.9375 -7.359375 6.757812 -7.785156 6.40625 -8.078125 C 6.0625 -8.378906 5.539062 -8.53125 4.84375 -8.53125 L 2.25 -8.53125 L 2.25 -5.046875 Z M 4.84375 -5.046875 "/></g></g></g><g fill="#393939" fill-opacity="1"><g transform="translate(101.511585, 293.467629)"><g><path d="M 1.171875 0 L 1.171875 -9.4375 L 7.125 -9.4375 L 7.125 -8.53125 L 2.234375 -8.53125 L 2.234375 -5.25 L 6.859375 -5.25 L 6.859375 -4.328125 L 2.234375 -4.328125 L 2.234375 -0.90625 L 7.125 -0.90625 L 7.125 0 Z M 1.171875 0 "/></g></g></g><g fill="#393939" fill-opacity="1"><g transform="translate(117.615846, 293.467629)"><g><path d="M 3.4375 0 L 3.4375 -8.5 L 0.15625 -8.5 L 0.15625 -9.4375 L 7.828125 -9.4375 L 7.828125 -8.5 L 4.546875 -8.5 L 4.546875 0 Z M 3.4375 0 "/></g></g></g><g fill="#393939" fill-opacity="1"><g transform="translate(133.918663, 293.467629)"><g><path d="M 4.15625 0.109375 C 2.6875 0.109375 1.515625 -0.289062 0.640625 -1.09375 L 1.046875 -1.921875 C 1.515625 -1.523438 1.988281 -1.242188 2.46875 -1.078125 C 2.957031 -0.910156 3.523438 -0.828125 4.171875 -0.828125 C 4.929688 -0.828125 5.515625 -0.972656 5.921875 -1.265625 C 6.335938 -1.554688 6.546875 -1.972656 6.546875 -2.515625 C 6.546875 -2.835938 6.445312 -3.097656 6.25 -3.296875 C 6.050781 -3.492188 5.789062 -3.648438 5.46875 -3.765625 C 5.144531 -3.878906 4.710938 -4 4.171875 -4.125 C 3.453125 -4.28125 2.859375 -4.453125 2.390625 -4.640625 C 1.921875 -4.828125 1.539062 -5.09375 1.25 -5.4375 C 0.957031 -5.789062 0.8125 -6.25 0.8125 -6.8125 C 0.8125 -7.351562 0.953125 -7.828125 1.234375 -8.234375 C 1.515625 -8.640625 1.910156 -8.957031 2.421875 -9.1875 C 2.941406 -9.425781 3.546875 -9.546875 4.234375 -9.546875 C 4.890625 -9.546875 5.5 -9.441406 6.0625 -9.234375 C 6.632812 -9.035156 7.113281 -8.738281 7.5 -8.34375 L 7.078125 -7.515625 C 6.628906 -7.890625 6.175781 -8.164062 5.71875 -8.34375 C 5.269531 -8.519531 4.773438 -8.609375 4.234375 -8.609375 C 3.503906 -8.609375 2.929688 -8.453125 2.515625 -8.140625 C 2.097656 -7.828125 1.890625 -7.394531 1.890625 -6.84375 C 1.890625 -6.375 2.070312 -6.019531 2.4375 -5.78125 C 2.800781 -5.539062 3.359375 -5.332031 4.109375 -5.15625 C 4.921875 -4.957031 5.554688 -4.773438 6.015625 -4.609375 C 6.484375 -4.453125 6.867188 -4.207031 7.171875 -3.875 C 7.484375 -3.539062 7.640625 -3.101562 7.640625 -2.5625 C 7.640625 -2.03125 7.5 -1.5625 7.21875 -1.15625 C 6.9375 -0.757812 6.53125 -0.445312 6 -0.21875 C 5.476562 0 4.863281 0.109375 4.15625 0.109375 Z M 4.15625 0.109375 "/></g></g></g><g fill="#393939" fill-opacity="1"><g transform="translate(150.486216, 293.467629)"><g/></g></g><g fill="#393939" fill-opacity="1"><g transform="translate(162.261942, 293.467629)"><g><path d="M 8.375 0 L 7.34375 -2.421875 L 2.40625 -2.421875 L 1.359375 0 L 0.234375 0 L 4.390625 -9.4375 L 5.34375 -9.4375 L 9.484375 0 Z M 2.796875 -3.328125 L 6.953125 -3.328125 L 4.875 -8.171875 Z M 2.796875 -3.328125 "/></g></g></g><g fill="#393939" fill-opacity="1"><g transform="translate(180.298812, 293.467629)"><g><path d="M 1.171875 -9.4375 L 4.328125 -9.4375 C 5.835938 -9.4375 7.003906 -9.023438 7.828125 -8.203125 C 8.660156 -7.390625 9.078125 -6.234375 9.078125 -4.734375 C 9.078125 -3.222656 8.660156 -2.054688 7.828125 -1.234375 C 7.003906 -0.410156 5.835938 0 4.328125 0 L 1.171875 0 Z M 4.265625 -0.921875 C 5.484375 -0.921875 6.398438 -1.238281 7.015625 -1.875 C 7.628906 -2.507812 7.9375 -3.460938 7.9375 -4.734375 C 7.9375 -7.242188 6.710938 -8.5 4.265625 -8.5 L 2.25 -8.5 L 2.25 -0.921875 Z M 4.265625 -0.921875 "/></g></g></g><g fill="#393939" fill-opacity="1"><g transform="translate(198.494529, 293.467629)"><g><path d="M 5.109375 0.109375 C 4.234375 0.109375 3.472656 -0.0820312 2.828125 -0.46875 C 2.191406 -0.863281 1.695312 -1.425781 1.34375 -2.15625 C 1 -2.882812 0.828125 -3.738281 0.828125 -4.71875 C 0.828125 -5.707031 1 -6.5625 1.34375 -7.28125 C 1.6875 -8.007812 2.179688 -8.566406 2.828125 -8.953125 C 3.472656 -9.347656 4.234375 -9.546875 5.109375 -9.546875 C 5.992188 -9.546875 6.757812 -9.347656 7.40625 -8.953125 C 8.050781 -8.566406 8.546875 -8.007812 8.890625 -7.28125 C 9.234375 -6.5625 9.40625 -5.710938 9.40625 -4.734375 C 9.40625 -3.742188 9.226562 -2.882812 8.875 -2.15625 C 8.53125 -1.4375 8.035156 -0.878906 7.390625 -0.484375 C 6.742188 -0.0859375 5.984375 0.109375 5.109375 0.109375 Z M 5.109375 -0.828125 C 6.109375 -0.828125 6.882812 -1.164062 7.4375 -1.84375 C 8 -2.519531 8.28125 -3.484375 8.28125 -4.734375 C 8.28125 -5.972656 8.003906 -6.925781 7.453125 -7.59375 C 6.898438 -8.269531 6.117188 -8.609375 5.109375 -8.609375 C 4.109375 -8.609375 3.328125 -8.269531 2.765625 -7.59375 C 2.210938 -6.914062 1.9375 -5.960938 1.9375 -4.734375 C 1.9375 -3.484375 2.210938 -2.519531 2.765625 -1.84375 C 3.328125 -1.164062 4.109375 -0.828125 5.109375 -0.828125 Z M 5.109375 -0.828125 "/></g></g></g><g fill="#393939" fill-opacity="1"><g transform="translate(217.034425, 293.467629)"><g><path d="M 1.171875 -9.4375 L 4.921875 -9.4375 C 5.898438 -9.4375 6.660156 -9.203125 7.203125 -8.734375 C 7.742188 -8.265625 8.015625 -7.617188 8.015625 -6.796875 C 8.015625 -5.972656 7.738281 -5.320312 7.1875 -4.84375 C 6.644531 -4.375 5.890625 -4.140625 4.921875 -4.140625 L 2.25 -4.140625 L 2.25 0 L 1.171875 0 Z M 4.84375 -5.046875 C 5.539062 -5.046875 6.0625 -5.195312 6.40625 -5.5 C 6.757812 -5.800781 6.9375 -6.234375 6.9375 -6.796875 C 6.9375 -7.359375 6.757812 -7.785156 6.40625 -8.078125 C 6.0625 -8.378906 5.539062 -8.53125 4.84375 -8.53125 L 2.25 -8.53125 L 2.25 -5.046875 Z M 4.84375 -5.046875 "/></g></g></g><g fill="#393939" fill-opacity="1"><g transform="translate(233.972619, 293.467629)"><g><path d="M 3.4375 0 L 3.4375 -8.5 L 0.15625 -8.5 L 0.15625 -9.4375 L 7.828125 -9.4375 L 7.828125 -8.5 L 4.546875 -8.5 L 4.546875 0 Z M 3.4375 0 "/></g></g></g><g fill="#393939" fill-opacity="1"><g transform="translate(250.275439, 293.467629)"><g><path d="M 1.171875 0 L 1.171875 -9.4375 L 2.25 -9.4375 L 2.25 0 Z M 1.171875 0 "/></g></g></g><g fill="#393939" fill-opacity="1"><g transform="translate(262.011464, 293.467629)"><g><path d="M 5.109375 0.109375 C 4.234375 0.109375 3.472656 -0.0820312 2.828125 -0.46875 C 2.191406 -0.863281 1.695312 -1.425781 1.34375 -2.15625 C 1 -2.882812 0.828125 -3.738281 0.828125 -4.71875 C 0.828125 -5.707031 1 -6.5625 1.34375 -7.28125 C 1.6875 -8.007812 2.179688 -8.566406 2.828125 -8.953125 C 3.472656 -9.347656 4.234375 -9.546875 5.109375 -9.546875 C 5.992188 -9.546875 6.757812 -9.347656 7.40625 -8.953125 C 8.050781 -8.566406 8.546875 -8.007812 8.890625 -7.28125 C 9.234375 -6.5625 9.40625 -5.710938 9.40625 -4.734375 C 9.40625 -3.742188 9.226562 -2.882812 8.875 -2.15625 C 8.53125 -1.4375 8.035156 -0.878906 7.390625 -0.484375 C 6.742188 -0.0859375 5.984375 0.109375 5.109375 0.109375 Z M 5.109375 -0.828125 C 6.109375 -0.828125 6.882812 -1.164062 7.4375 -1.84375 C 8 -2.519531 8.28125 -3.484375 8.28125 -4.734375 C 8.28125 -5.972656 8.003906 -6.925781 7.453125 -7.59375 C 6.898438 -8.269531 6.117188 -8.609375 5.109375 -8.609375 C 4.109375 -8.609375 3.328125 -8.269531 2.765625 -7.59375 C 2.210938 -6.914062 1.9375 -5.960938 1.9375 -4.734375 C 1.9375 -3.484375 2.210938 -2.519531 2.765625 -1.84375 C 3.328125 -1.164062 4.109375 -0.828125 5.109375 -0.828125 Z M 5.109375 -0.828125 "/></g></g></g><g fill="#393939" fill-opacity="1"><g transform="translate(280.55136, 293.467629)"><g><path d="M 7.703125 -9.4375 L 8.734375 -9.4375 L 8.734375 0 L 7.890625 0 L 2.1875 -7.59375 L 2.1875 0 L 1.171875 0 L 1.171875 -9.4375 L 2 -9.4375 L 7.703125 -1.84375 Z M 7.703125 -9.4375 "/></g></g></g></svg>